<svg xmlns="http://www.w3.org/2000/svg" viewBox="0 0 841.77 352.93"><defs><style>.cls-1{fill:#fefefe;}.cls-2{fill:#fecb29;}.cls-3{fill:#010101;}.cls-4{fill:#38b5fe;}.cls-5{fill:#fe1616;}.cls-6{fill:#f1743a;}.cls-7{fill:#f1753d;}.cls-8{fill:#f1743b;}.cls-9{fill:#f17238;}.cls-10{fill:#9a9b9d;}.cls-11{fill:#999a9c;}.cls-12{fill:#9fa0a2;}.cls-13{fill:#f17339;}.cls-14{fill:#9c9e9f;}.cls-15{fill:#fbdbca;}.cls-16{fill:#fce4d6;}.cls-17{fill:#959491;}.cls-18{fill:#fe3d3c;}.cls-19{fill:#fe4342;}.cls-20{fill:#bdbbb7;}.cls-21{fill:#fe1b1b;}.cls-22{fill:#fefcf7;}.cls-23{fill:#fdfcf7;}.cls-24{fill:#fbd8c6;}.cls-25{fill:#9e9fa1;}.cls-26{fill:#a5a6a7;}.cls-27{fill:#96989a;}.cls-28{fill:#a6a8a8;}.cls-29{fill:#e6e5e2;}.cls-30{fill:#999b9c;}.cls-31{fill:#0071bc;}</style></defs><g id="Layer_2" data-name="Layer 2"><g id="Layer_1-2" data-name="Layer 1"><path class="cls-1" d="M371.58,352.93V5.87c0-5.09,0-5.09-4.95-5.09H0C.18.56-.31.05.38.07c.91,0,1.82,0,2.73,0Q186.07.08,369,0c2.75,0,3.32.54,3.32,3.41q-.13,173.18-.12,346.36C372.22,350.8,373,352.15,371.58,352.93Z"/><path class="cls-2" d="M127.92,147.42C140,123,163.11,109.58,189.41,110.94c26.9,1.4,45.39,17.81,52.51,33.8-2.09-1.82-4-3-5.34-4.74-1.9-2.52-4-2.85-6.85-2.27C221,139.56,212.07,141,203.35,143c-3.8.9-6.23-.4-8.54-3-1.92-2.17-3.82-4.35-5.78-6.47-1.6-1.73-3-2.3-4.9,0-2.72,3.26-5.93,6.08-8.83,9.19-1,1.06-1.91.8-3.07.58-9.82-1.88-19.67-3.6-29.46-5.6a6.58,6.58,0,0,0-6.7,2.11C133.62,142.34,131.9,145.71,127.92,147.42Z"/><path class="cls-3" d="M233.16,140.15c2.79.92,4.35,3.53,6.31,5.4,7.13,6.78,13.84,14,20.71,21.08,2.56,2.62,5.21,5.14,7.68,7.84,1.15,1.26,2.47.82,3.77,1,.93.13,2.5-.77,2.4,1.36s-1.6,1.29-2.56,1.29q-21.68.06-43.34,0c-1.12,0-2.19.08-3.14-.9-4.55-4.64-9.22-9.17-13.76-13.83q-11-11.32-22-22.76c-1.84-1.92-3.14-2.59-5.47-.06-9.16,10-19.15,19.05-28.24,29.08-.74.82-2,1.25-2.54,2.16-3.48,5.86-8.62,6.68-14.83,6.44-11.81-.45-23.65-.13-35.48-.13-.68,0-1.37,0-2,0-1.13.09-1.63-.34-1.62-1.59s.91-1.21,1.64-1.1c3,.44,4.76-1.28,6.66-3.26C117.1,162.05,127,152,136.8,141.91a5.1,5.1,0,0,1,3.14-1.71c3.93,2.1,6.15,6.13,9.46,9a60.28,60.28,0,0,1,8,8.12c1.55,2,2.93,2,4.84.34,2.12-1.83,3.6-4.2,5.6-6.12a30.37,30.37,0,0,1,6.21-4.88c3.52-3.57,7.16-7,10.49-10.78,1.34-1.51,2.37-1.3,3.54-.31a25.4,25.4,0,0,1,3.08,3.22,85.44,85.44,0,0,0,8,8,67.08,67.08,0,0,1,11.45,10.76c1.73,2.13,2.93,2,4.63.19,5.05-5.36,10.12-10.69,15.51-15.68A16.75,16.75,0,0,1,233.16,140.15Z"/><path class="cls-4" d="M102.71,209.74c-4.24,6.4-8.42,5.79-11.82-.6,0,4-.15,7.91,0,11.85.15,2.89-.77,3.92-3.65,3.82-7.31-.25-6.51.89-6.54-6.79,0-7.15.07-14.3,0-21.44,0-2.56.78-3.75,3.34-3.47a12.05,12.05,0,0,0,3.06,0c3.08-.48,4.74,1,6.1,3.75,1,1.93,1.28,5.21,3.88,5.16,2.35,0,2.5-3.24,3.58-5,2-3.25,8.84-5.38,12.13-3.56,1.12.62,1.08,1.71,1.09,2.74,0,8.55,0,17.1,0,25.66,0,2-.71,3-2.81,3-9.74-.18-8.23,1.41-8.38-8.06C102.68,214.38,102.71,212.06,102.71,209.74Z"/><path class="cls-4" d="M132.51,209c0-2.69-.08-5.39,0-8.08.17-4.11,1.88-6.09,5.68-7.22a32.69,32.69,0,0,1,16.17-.36c3.93.82,5.92,3.05,6.31,7.14a92.15,92.15,0,0,1,0,17.18c-.38,4.11-2.12,6.14-6,7a32.61,32.61,0,0,1-16.5-.29c-3.81-1.15-5.5-3.14-5.63-7.25C132.44,214.34,132.51,211.65,132.51,209Z"/><path class="cls-4" d="M223.39,208.8c0-4.1.08-8.21,0-12.31-.06-2.33.56-3.45,3.05-3.4,6.26.12,12.52.15,18.77,0,3.92-.1,2.76,2.73,3,4.86.24,2.37-.32,3.78-3.1,3.59-3.17-.21-6.37,0-9.55-.06-1.21,0-1.91.28-1.89,1.75s.78,1.73,2,1.71a42.1,42.1,0,0,0,4.77-.05c3.15-.43,3.75,1.05,3.79,4,0,3.17-1,4.25-3.94,3.89-1.57-.2-3.19,0-4.78-.05-1.3,0-1.81.48-1.8,1.84s.57,1.84,1.84,1.83c3.29,0,6.6.07,9.89,0,3.68-.12,2.66,2.62,2.8,4.66s.07,3.87-2.91,3.78c-6.25-.19-12.51-.15-18.77,0-2.45.06-3.17-.93-3.1-3.32C223.48,217.25,223.39,213,223.39,208.8Z"/><path class="cls-5" d="M161.24,105.08a75.43,75.43,0,0,1,49.16-.39c14.1,4.67,26,12.62,35.3,24.79a52.16,52.16,0,0,1,5.79,8.87c2.38,5,5.35,9.68,6.33,15.27.22,1.24.74,2.45.15,4-4-3.8-7.82-7.25-10.38-12.52-10.74-22.1-28.17-35.4-51.78-40.16-11.15-2.24-22.13-1.33-33.12.83C162,106.06,161.23,106.41,161.24,105.08Z"/><path class="cls-4" d="M266.52,208.56c0-4.11.06-8.22,0-12.32-.05-2.24.74-3.18,3-3.14,8.76.15,7.24-.91,7.35,7.35.07,4.46.15,8.93,0,13.38-.12,2.82,1.5,2.67,3.27,2.55,1.54-.1,3.39.73,3.47-2.31.16-6.73.31-6.67,7.25-6.29,1.72.1,2.5.64,2.47,2.46-.05,4,0,8,0,12,0,1.71-.54,2.57-2.36,2.56q-10.93-.09-21.85,0c-2,0-2.55-1-2.53-2.84C266.55,217.47,266.52,213,266.52,208.56Z"/><path class="cls-4" d="M191.94,193.13c3.75,0,7.51.07,11.26,0,3.53-.08,2.81,2.52,2.92,4.65s0,3.84-2.92,3.88c-5.71.09-5.71.25-5.71,6.25,0,4.57-.1,9.15,0,13.72.07,2.37-1,3-3,3.16-8.19.57-8.19.61-8.19-7.8,0-3.88-.15-7.76,0-11.62.15-2.81-.57-4.28-3.53-3.77a1.93,1.93,0,0,1-.34,0c-4.64,0-6-2-4.76-6.78.45-1.73,1.66-1.68,2.92-1.68Z"/><path class="cls-3" d="M188.51,107.9c-14.76-.3-28.51,3-41,11.48a69.36,69.36,0,0,0-16.33,15.48c-3.35,4.37-5.14,9.44-7.82,14-2,3.37-5.77,5.59-8.47,8.06,2.19-11,7.82-20.56,15.85-29a68.75,68.75,0,0,1,16.22-12.42c13.42-7.56,27.78-9.76,42.82-8.31C189.82,108.48,189.18,108.22,188.51,107.9Z"/><path class="cls-5" d="M233.16,140.15c-3.84,4.07-7.51,8.33-11.57,12.15-2.44,2.28-4.55,4.83-6.87,7.21-1.18,1.2-2,1.6-3.34.19-4-4.37-8.16-8.66-12.26-13Q216.06,142.94,233.16,140.15Z"/><path class="cls-5" d="M174.06,146.63c-4.4,4.43-8.82,8.85-13.21,13.29-.7.71-1.23.84-2,0-6.13-6.77-13.2-12.59-18.95-19.76Z"/><path class="cls-6" d="M179,248.67c0,4.27-.32,4.5-3.8,2.3-1.22-.77-.84.24-1.13.65-.74,1.06-1.85.63-2.78.52s-.94-1.16-1-1.94c-.06-1.17,0-2.34-.08-3.51-.07-1.56.81-2.2,2.11-2a13.68,13.68,0,0,0,5.27.42C180.12,244.67,178.44,247.57,179,248.67Z"/><path class="cls-6" d="M198.8,248.25c0-4.07.32-4.32,3.82-2.29.81.46.75.17,1.07-.37.78-1.31,2-.84,3.06-.53,1.4.41.81,1.75.84,2.69.15,5.1-.24,5.37-4.58,3.33-.23-.11-.25-.42-.76-.21C198.84,252.26,198.83,252.22,198.8,248.25Z"/><path class="cls-7" d="M181.78,248.32c-.5-2.59.24-3.81,3.11-3.67,4.23.22,5.73,1,5.62,3.74-.15,3.87-3,3.56-5.59,3.89C181.6,252.7,181.46,250.78,181.78,248.32Z"/><path class="cls-8" d="M213.66,252.21c-1.77.34-3.26-.19-3.8-2s-.41-3.6,1.28-4.73a5.43,5.43,0,0,1,5.54-.41,1,1,0,0,1,.52,1.15c-.13.79-.62.83-1.24.73-1.53-.25-2.08.61-2,2a1.21,1.21,0,0,0,.45.88c.5.29.8,0,.89-.57.23-1.35,1.25-1.34,2.1-1,1.11.42.65,1.58.69,2.46.07,1.23-.6,1.62-1.71,1.54C215.46,252.16,214.56,252.21,213.66,252.21Z"/><path class="cls-9" d="M155.12,243.79c1.8,0,3.6-.08,5.4-.08.54,0,1.56.26,1.26.69-1.64,2.34-.71,5.85-3.23,7.67-1.83,1.31-3.34-.15-3.6-3.35A4.8,4.8,0,0,1,155.12,243.79Z"/><path class="cls-10" d="M181.49,177.58c-2.56.55-3.32-.47-3.38-3.12-.06-2.93,1.27-3.07,3.49-3.13,2.56-.05,3.56.65,3.56,3.52C185.15,178,183.46,177.84,181.49,177.58Z"/><path class="cls-11" d="M194.44,174.74c.62,3.1-1.32,2.8-3.23,3-2.72.24-2.69-1.33-2.82-3.4-.19-2.82,1.25-2.88,3.3-3C194.31,171.26,194.85,172.58,194.44,174.74Z"/><path class="cls-12" d="M181.59,169c-1-.3-2.55.63-3-.78s1-1.92,1.75-2.7c.16-.16.27-.37.43-.54,1.05-1.06,2.3-2.62,3.68-1.9s.67,2.74.59,4.16C184.87,169.65,182.89,168.71,181.59,169Z"/><path class="cls-13" d="M196.17,250.84c-.14,1.82-1.48,1.42-2.51,1.36-1.4-.08-1-1.32-1-2.14-.48-5.3-.44-5.35,3.22-5.44C197.35,246.61,196.88,248.72,196.17,250.84Z"/><path class="cls-13" d="M168.21,248.48c-.72,1.17,1.18,3.92-1.9,3.7s-1.39-3-1.71-4.6c-.22-1.13-.71-3,1.6-3C169.27,244.59,167.75,247,168.21,248.48Z"/><path class="cls-14" d="M188.5,165.23c.27-.62-.7-2.42,1-2.13a5.32,5.32,0,0,1,4.32,4.47c.34,2.14-1.68,1.19-2.7,1.36C188.22,169.39,188.31,167.4,188.5,165.23Z"/><path class="cls-15" d="M196.17,250.84c-.12-2.07-.23-4.15-.34-6.22C198,246,198.09,248.59,196.17,250.84Z"/><path class="cls-16" d="M155.12,243.79c-.06,1.64-.11,3.29-.17,4.93C153.15,246.71,153.2,245.44,155.12,243.79Z"/><path class="cls-17" d="M188.51,107.9l1.24-.63a2.15,2.15,0,0,1,2.75,1A4.8,4.8,0,0,1,188.51,107.9Z"/><path class="cls-18" d="M161.24,105.08l1.45.71c-1.05.83-2.36.85-3.56,1.21-.3-.2-.72-.23-.81-.69A4.94,4.94,0,0,1,161.24,105.08Z"/><path class="cls-19" d="M156.48,107.86c-1,1-2.47.83-3.89,1.52.6-2,2.24-1.42,3.23-2.06A.85.85,0,0,1,156.48,107.86Z"/><path class="cls-20" d="M198.93,108.83c-2,.57-3,.61-4.15-.85Z"/><path class="cls-21" d="M156.48,107.86l-.66-.54,2.5-1,.81.69Z"/><path class="cls-22" d="M265.43,175.45c-12.32,0-24.38,0-36.45,0a3.34,3.34,0,0,1-2.75-1c-3.14-3.33-6.35-6.6-9.56-9.86-.95-1-1.62-1.72-.27-3.06,5.69-5.64,11.28-11.37,16.87-17.1.72-.73,1.18-.86,1.94-.07,1.59,1.63,3.31,3.13,4.89,4.76q11.15,11.47,22.21,23C263.29,173.22,265,173.41,265.43,175.45Z"/><path class="cls-22" d="M106.85,175.45c5.28-5.18,10-9.63,14.47-14.23,5-5.07,9.94-10.19,14.7-15.49,1.93-2.15,3.06-2.26,5,0a152,152,0,0,0,14.52,14.53c2.28,2,2.41,3.58,0,5.37a9.19,9.19,0,0,0-2.56,2.16c-4.26,7.07-10.57,8.29-18.1,7.82C126,175,116.94,175.45,106.85,175.45Z"/><path class="cls-23" d="M150.48,208.89c0,1.16,0,2.33,0,3.5,0,4.25-1,5.11-5.06,4.57-1.7-.23-2.69-1-2.66-2.9,0-3.38,0-6.77,0-10.15,0-3,2.16-2.88,4.07-2.87s3.75.19,3.63,3C150.42,205.62,150.48,207.26,150.48,208.89Z"/><path class="cls-24" d="M185.27,250.29v-4.51C186.9,247.67,186.23,249,185.27,250.29Z"/><path class="cls-25" d="M233.6,166.72c.09,2-1.21,1.72-2.3,1.78-1.26.07-1.82-.47-1.8-1.82,0-1.78,1.22-1.61,2.34-1.63S233.81,165.48,233.6,166.72Z"/><path class="cls-26" d="M239,167c0,1.57-1.07,1.5-2.08,1.55s-2-.12-2-1.61c0-1.3.45-2,1.76-1.82C237.81,165.22,239,165.34,239,167Z"/><path class="cls-27" d="M230.49,163.35c.52-1.4,1.19-2.51,2.54-2.47.86,0,.68,1.13.5,1.66C232.94,164.23,231.69,163.42,230.49,163.35Z"/><path class="cls-27" d="M237.61,162.63c-.05.84-.64.85-1.2.89-1,.06-1.46-.45-1.4-1.47,0-.57,0-1.35.76-1.23A2.43,2.43,0,0,1,237.61,162.63Z"/><path class="cls-28" d="M141.45,165.05c1.22,0,1.43.83,1.43,1.87,0,1.23-.64,1.6-1.7,1.6s-1.7-.45-1.67-1.64A1.66,1.66,0,0,1,141.45,165.05Z"/><path class="cls-29" d="M137.33,168.43c-1.23.89-2.53,1.32-3.3-.41-.39-.88-.53-2.31.51-2.84,1.19-.6,2.86-.85,3.77.31.72.92.9,2.49-1,2.93a13.37,13.37,0,0,0-1.06-1.08A13.76,13.76,0,0,0,137.33,168.43Z"/><path class="cls-28" d="M140.43,160.69a2.53,2.53,0,0,1,1.95,2.06c.13,1.08-.85.8-1.44.81-1.23,0-1.51-.77-1.41-1.85A1,1,0,0,1,140.43,160.69Z"/><path class="cls-30" d="M137.36,162.11c0,1-.5,1.46-1.45,1.42-.57,0-1.29-.09-1.13-.86a2.15,2.15,0,0,1,1.83-1.8C137.39,160.79,137.31,161.56,137.36,162.11Z"/><path class="cls-28" d="M137.33,168.43c-1-.17-2.36.56-2.75-1.09-.2-.84,0-1.68,1-1.76,2.26-.18,1.59,1.6,1.71,2.84Z"/><path class="cls-31" d="M375.8,110.37h-9.18a2.52,2.52,0,0,1-1.33-.33.91.91,0,0,1-.54-.78,1,1,0,0,1,.54-.87,2.62,2.62,0,0,1,1.33-.32h42.23l14.9,84.32,19.16-84.32h42.34a3.39,3.39,0,0,1,1.55.32c.42.21.63.48.63.78a1,1,0,0,1-.63.87,3.26,3.26,0,0,1-1.55.33H475.13V244.06h10.12a.8.8,0,0,1,.62.18,1.41,1.41,0,0,1,.47,1.06,1,1,0,0,1-.31.79,1.16,1.16,0,0,1-.78.27H434a2.28,2.28,0,0,1-1.17-.31.92.92,0,0,1,0-1.68,2.28,2.28,0,0,1,1.17-.31h10.74V116.34l-27.4,126.8a6.9,6.9,0,0,1-1.09,2.85,2.21,2.21,0,0,1-1.4.37H404.76a2.21,2.21,0,0,1-1.4-.37c-.31-.24-.62-1.19-.94-2.85L380,117.63V234.22q0,4.78,1.64,6.71t5.68,2.76l7,.37a1.07,1.07,0,0,1,.78,1.1,1,1,0,0,1-.39,1,5,5,0,0,1-2,.23H365.21a1.68,1.68,0,0,1-1-.28.84.84,0,0,1-.39-.73.74.74,0,0,1,.39-.69,15.28,15.28,0,0,1,2.73-.78q4.81-1.11,6.54-2.85a9.39,9.39,0,0,0,2.33-6.81Z"/><path class="cls-31" d="M500.35,203.79v-18q0-21.6,12.3-31.72,9-7.44,23-7.45,17.59,0,27,10.95t9.42,29v19.95q0,23.45-12.14,33.66-8.73,7.35-23.2,7.35a43.89,43.89,0,0,1-15.34-2.57,30,30,0,0,1-12.53-9.29q-5.6-6.71-7.08-17.84T500.35,203.79Zm43.9-45.33c0-3.44-.85-5.84-2.54-7.22a9.15,9.15,0,0,0-5.94-2.07,8.65,8.65,0,0,0-5.24,1.7,6,6,0,0,0-2.31,5.2V233.3q0,7.27,2.77,9.84a8.72,8.72,0,0,0,5.86,1.84,8.32,8.32,0,0,0,5.47-1.61c1.29-1.07,1.93-3.39,1.93-6.94Z"/><path class="cls-31" d="M593.29,150H586a5.25,5.25,0,0,1-2.18-.37c-.52-.24-.78-.55-.78-.92s.47-.88,1.41-1.37q13.2-6,19.17-11.88a65.77,65.77,0,0,0,10.52-13.81q3.3-5.69,3.46-7.89l.31-4.22a1.77,1.77,0,0,1,1.34-.46,3.1,3.1,0,0,1,1.41.27.83.83,0,0,1,.52.74V147.7h23.06a4.41,4.41,0,0,1,1.93.35c.46.24.7.5.7.8a.85.85,0,0,1-.62.79,4.82,4.82,0,0,1-2,.36H621.16v85.69q0,4,1.86,5.43a5.44,5.44,0,0,0,3.71,1.1,13.56,13.56,0,0,0,9.29-3.58q6-5.34,6-16.37V208.84a2.44,2.44,0,0,1,.93-2,2.57,2.57,0,0,1,1.55-.46,2.54,2.54,0,0,1,1.54.46,2.44,2.44,0,0,1,.93,2v10.21q0,15.54-8.32,22t-20.79,6.43q-11.67,0-17.12-3.77a16.32,16.32,0,0,1-7.48-14.36Z"/><path class="cls-31" d="M683,197.35v34.21q0,8,3.11,10.57,2.34,1.94,7.63,1.93a23.47,23.47,0,0,0,15.57-5.79q11.36-9.75,12.14-26.58c.11-3.67.39-5.76.86-6.25a2.56,2.56,0,0,1,2-.73,2.49,2.49,0,0,1,1.71.55c.52.49.78,1.65.78,3.49q0,16.37-9.73,27.54t-26.24,11.17q-15.4,0-25.53-8.59T655.1,201.58V188.06q0-22,13.7-33.37,9.81-8.1,23.67-8.1,16.5,0,25.45,10.39t9,25.29v15.08Zm16-2.48V155.7a6.79,6.79,0,0,0-2.46-5.7,8,8,0,0,0-5.09-1.38,10.28,10.28,0,0,0-5.94,1.74A6.06,6.06,0,0,0,683,155.7v39.17Z"/><path class="cls-31" d="M744.93,150h-7.78c-1-.36-1.56-.68-1.56-1s.52-.85,1.56-1.32h7.78V133q0-13.34,8.49-19.68A30.81,30.81,0,0,1,772.33,107a24.93,24.93,0,0,1,13.55,3.73q5.91,3.72,5.91,9.15a8.29,8.29,0,0,1-3.73,7.08,14.84,14.84,0,0,1-16,.64,6.31,6.31,0,0,1-3.19-5.61,7,7,0,0,1,3.42-6.3q3.42-2.16,10.28-2.25a9.63,9.63,0,0,0-4.05-2.76,16.65,16.65,0,0,0-5.76-.92,15.5,15.5,0,0,0-9,2.81,8.69,8.69,0,0,0-4,7.49q0,5.61,6.23,14.58t6.54,13.1H790.7c1,.41,1.56.76,1.56,1.06s-.52.82-1.56,1.24H772.49v94.06l18.52.18.31,1a1.49,1.49,0,0,1-.62,1.15H737.15l-.78-.27-.47-.88c0-.41.41-.8,1.25-1.15h7.78Z"/><path class="cls-31" d="M805.18,150h-6.07a3.07,3.07,0,0,1-1.48-.31,1,1,0,0,1-.54-.84.93.93,0,0,1,.54-.84,3,3,0,0,1,1.49-.31h33.93v96.36h6.69a2.94,2.94,0,0,1,1.48.31,1,1,0,0,1,.55.93.91.91,0,0,1-.55.75,3,3,0,0,1-1.48.31H799.11c-1-.41-1.56-.8-1.56-1.15s.52-.8,1.56-1.15h6.07ZM803,116.62c0-2.64,1.61-4.9,4.83-6.81A22,22,0,0,1,819.19,107,23.24,23.24,0,0,1,831,109.77q4.82,2.81,4.82,6.85t-4.82,6.9a22.62,22.62,0,0,1-11.68,2.85,22.22,22.22,0,0,1-11.52-2.85Q803,120.67,803,116.62Z"/></g></g></svg>